<?xml version="1.0" encoding="UTF-8"?>
<!DOCTYPE svg PUBLIC "-//W3C//DTD SVG 1.1//EN" "http://www.w3.org/Graphics/SVG/1.1/DTD/svg11.dtd">
<!-- Creator: CorelDRAW 2020 (64-Bit) -->
<svg xmlns="http://www.w3.org/2000/svg" xml:space="preserve" width="0.614787in" height="0.854831in" version="1.1" style="shape-rendering:geometricPrecision; text-rendering:geometricPrecision; image-rendering:optimizeQuality; fill-rule:evenodd; clip-rule:evenodd"
viewBox="0 0 62.7 87.18"
 xmlns:xlink="http://www.w3.org/1999/xlink"
 xmlns:xodm="http://www.corel.com/coreldraw/odm/2003">
 <defs>
  <style type="text/css">
   <![CDATA[
    .fil0 {fill:#00AFEF}
   ]]>
  </style>
 </defs>
 <g id="Layer_x0020_1">
  <metadata id="CorelCorpID_0Corel-Layer"/>
  <path class="fil0" d="M62.68 55.87c-0.74,16.63 -13.04,30.27 -29.39,31.28l0 -10.06c0,-4.72 -0.36,-5.27 3.4,-8.73 3.04,-2.8 4.71,-0.98 7.42,-2.7 1.21,-0.77 1.81,-2.07 2.11,-3.44 0.35,-1.63 0.22,-1.57 1.62,-2.18 2.28,-0.97 3.8,-3.14 3.8,-6.01 0,-3.42 -2.95,-6.59 -6.59,-6.59 -3.64,0 -6.59,2.95 -6.59,6.59 0,2.97 1.97,5.49 4.68,6.31 0.72,0.22 0.97,0.5 0.73,1.35 -0.75,2.67 -3.09,1.97 -5.14,2.43 -1.36,0.3 -2.51,1.08 -3.52,2.01 -0.63,0.58 -1.93,2.02 -1.93,0.18l0 -26.08c0,-0.98 0.51,-1.42 1.32,-1.83 2.15,-1.09 3.62,-3.31 3.62,-5.88 0,-3.64 -2.95,-6.59 -6.59,-6.59 -3.64,0 -6.59,2.95 -6.59,6.59 0,2.51 1.41,4.7 3.48,5.81 1.19,0.64 1.44,1.11 1.44,2.52l0 33.24c0,0.32 -0.67,0.74 -1.04,0.33 -3.45,-3.84 -10.82,-9.45 -10.87,-13.38l0.07 -4.43c0.02,-1.24 0.17,-1.37 1.23,-1.81 2.28,-0.96 3.71,-3.15 3.71,-6.07 0,-3.4 -2.95,-6.59 -6.59,-6.59 -3.64,0 -6.59,3.1 -6.59,6.59 0,3.09 1.66,5.37 4.28,6.15 0.98,0.29 1.07,0.74 1.05,1.79l-0.08 4.59c0.06,5.46 7.8,10.74 11.32,14.56 2.79,3.03 3.51,3.64 3.51,7.67l0 3.71c-16.67,-0.72 -29.97,-14.46 -29.97,-31.31 0,-6.55 1.76,-13.76 5.66,-20.34 6.33,-10.66 15.29,-23.31 23.21,-33.28 0.64,-0.81 1.72,-2.67 2.91,-2.17 0.83,0.34 1.34,1.21 1.8,1.82 15.03,20.21 29.77,39.08 29.11,53.97zm-31.04 -26.22c1.58,0 2.87,1.28 2.87,2.87 0,1.58 -1.28,2.87 -2.87,2.87 -1.58,0 -2.87,-1.28 -2.87,-2.87 0,-1.58 1.28,-2.87 2.87,-2.87zm13.41 21.51c1.58,0 2.87,1.28 2.87,2.87 0,1.58 -1.28,2.87 -2.87,2.87 -1.58,0 -2.87,-1.28 -2.87,-2.87 0,-1.58 1.28,-2.87 2.87,-2.87zm-28.58 -5.31c1.58,0 2.87,1.28 2.87,2.87 0,1.58 -1.28,2.87 -2.87,2.87 -1.58,0 -2.87,-1.28 -2.87,-2.87 0,-1.58 1.28,-2.87 2.87,-2.87z"/>
 </g>
</svg>
